<?xml version="1.0" encoding="iso-8859-1"?>
<!-- Generator: Adobe Illustrator 19.0.0, SVG Export Plug-In . SVG Version: 6.00 Build 0)  -->
<svg version="1.1" id="Layer_1" xmlns="http://www.w3.org/2000/svg" xmlns:xlink="http://www.w3.org/1999/xlink" x="0px" y="0px"
	 viewBox="0 0 512 512" style="enable-background:new 0 0 512 512;" xml:space="preserve">
<g>
	<g>
		<path d="M460.8,76.8H51.2C22.972,76.8,0,99.772,0,128v256c0,28.228,22.972,51.2,51.2,51.2h409.6c28.228,0,51.2-22.972,51.2-51.2
			V128C512,99.772,489.028,76.8,460.8,76.8z M486.4,384c0,14.14-11.46,25.6-25.6,25.6H51.2c-14.14,0-25.6-11.46-25.6-25.6V128
			c0-14.14,11.46-25.6,25.6-25.6h409.6c14.14,0,25.6,11.46,25.6,25.6V384z"/>
	</g>
</g>
<g>
	<g>
		<path d="M204.8,153.6H102.4c-14.14,0-25.6,11.46-25.6,25.6v153.6c0,14.14,11.46,25.6,25.6,25.6h102.4
			c14.14,0,25.6-11.46,25.6-25.6V179.2C230.4,165.06,218.94,153.6,204.8,153.6z M204.8,332.8H102.4V179.2h102.4V332.8z"/>
	</g>
</g>
<g>
	<g>
		<rect x="256" y="153.6" width="179.2" height="25.6"/>
	</g>
</g>
<g>
	<g>
		<rect x="256" y="281.6" width="179.2" height="25.6"/>
	</g>
</g>
<g>
	<g>
		<rect x="256" y="230.4" width="179.2" height="25.6"/>
	</g>
</g>
<g>
	<g>
		<rect x="256" y="332.8" width="179.2" height="25.6"/>
	</g>
</g>
<g>
</g>
<g>
</g>
<g>
</g>
<g>
</g>
<g>
</g>
<g>
</g>
<g>
</g>
<g>
</g>
<g>
</g>
<g>
</g>
<g>
</g>
<g>
</g>
<g>
</g>
<g>
</g>
<g>
</g>
</svg>
